<?xml version="1.0" encoding="utf-8"?>
<!-- Generator: Adobe Illustrator 21.0.0, SVG Export Plug-In . SVG Version: 6.00 Build 0)  -->
<svg version="1.1" id="Layer_1" focusable="false" xmlns="http://www.w3.org/2000/svg" xmlns:xlink="http://www.w3.org/1999/xlink"
	 x="0px" y="0px" viewBox="0 0 448 512" style="enable-background:new 0 0 448 512;" xml:space="preserve">
<style type="text/css">
	.st0{fill:#FFFFFF;}
</style>
<path class="st0" d="M448,358.4V25.6c0-16-9.6-25.6-25.6-25.6H96C41.6,0,0,41.6,0,96v320c0,54.4,41.6,96,96,96h326.4
	c12.8,0,25.6-9.6,25.6-25.6v-16c0-6.4-3.2-12.8-9.6-19.2c-3.2-16-3.2-60.8,0-73.6C444.8,374.4,448,368,448,358.4L448,358.4z
	 M144,168c0-4.4,3.6-8,8-8h56v-56c0-4.4,3.6-8,8-8h48c4.4,0,8,3.6,8,8v56h56c4.4,0,8,3.6,8,8v48c0,4.4-3.6,8-8,8h-56v56
	c0,4.4-3.6,8-8,8h-48c-4.4,0-8-3.6-8-8v-56h-56c-4.4,0-8-3.6-8-8V168z M380.8,448H96c-19.2,0-32-12.8-32-32s16-32,32-32h284.8V448z"
	/>
</svg>
