<?xml version="1.0" encoding="utf-8"?>
<!-- Generator: Adobe Illustrator 21.0.0, SVG Export Plug-In . SVG Version: 6.00 Build 0)  -->
<svg version="1.1" id="Layer_1" focusable="false" xmlns="http://www.w3.org/2000/svg" xmlns:xlink="http://www.w3.org/1999/xlink"
	 x="0px" y="0px" viewBox="0 0 448 512" style="enable-background:new 0 0 448 512;" xml:space="preserve">
<style type="text/css">
	.st0{fill:#FFFFFF;}
</style>
<path class="st0" d="M406,143h-70v-42c0-23.2-18.8-42-42-42H154c-23.2,0-42,18.8-42,42v42H42c-23.2,0-42,18.8-42,42v252
	c0,23.2,18.8,42,42,42h364c23.2,0,42-18.8,42-42V185C448,161.8,429.2,143,406,143z M168,115h112v28H168V115z M308,332
	c0,3.9-3.1,7-7,7h-49v49c0,3.9-3.2,7-7,7h-42c-3.8,0-7-3.1-7-7v-49h-49c-3.8,0-7-3.1-7-7v-42c0-3.9,3.2-7,7-7h49v-49
	c0-3.8,3.2-7,7-7h42c3.8,0,7,3.2,7,7v49h49c3.9,0,7,3.1,7,7V332z"/>
</svg>
