<?xml version="1.0" encoding="utf-8"?>
<!-- Generator: Adobe Illustrator 21.0.0, SVG Export Plug-In . SVG Version: 6.00 Build 0)  -->
<svg version="1.1" id="Layer_1" focusable="false" xmlns="http://www.w3.org/2000/svg" xmlns:xlink="http://www.w3.org/1999/xlink"
	 x="0px" y="0px" viewBox="0 0 448 512" style="enable-background:new 0 0 448 512;" xml:space="preserve">
<style type="text/css">
	.st0{fill:#FFFFFF;}
</style>
<path class="st0" d="M224,148.3L54,298.2c-1.3,1.1-2.9,1.7-4.3,2.6v143.8c0,6.9,5.6,12.4,12.4,12.4h323.6c6.9,0,12.4-5.6,12.4-12.4
	V300.9c-1.3-0.9-2.9-1.4-4.1-2.5L224,148.3z M298.7,351.3c0,3.4-2.8,6.2-6.2,6.2h-43.6v43.6c0,3.4-2.8,6.2-6.2,6.2h-37.3
	c-3.4,0-6.2-2.8-6.2-6.2v-43.6h-43.6c-3.4,0-6.2-2.8-6.2-6.2V314c0-3.4,2.8-6.2,6.2-6.2h43.6v-43.6c0-3.4,2.8-6.2,6.2-6.2h37.3
	c3.4,0,6.2,2.8,6.2,6.2v43.6h43.6c3.4,0,6.2,2.8,6.2,6.2V351.3z M443.9,242.7L244.8,66.9c-11.8-10.7-29.8-10.7-41.6,0L4.1,242.7
	c-5.1,4.6-5.5,12.5-0.9,17.6l0,0l16.7,18.5c4.6,5.1,12.5,5.5,17.6,0.9l0,0l178.4-157.3c4.7-4.1,11.8-4.1,16.5,0l178.4,157.3
	c5.1,4.6,13,4.2,17.6-0.9l0,0l16.6-18.5C449.4,255.1,449,247.3,443.9,242.7z"/>
</svg>
