<?xml version="1.0" encoding="utf-8"?>
<!-- Generator: Adobe Illustrator 21.0.0, SVG Export Plug-In . SVG Version: 6.00 Build 0)  -->
<svg version="1.1" id="Layer_1" focusable="false" xmlns="http://www.w3.org/2000/svg" xmlns:xlink="http://www.w3.org/1999/xlink"
	 x="0px" y="0px" viewBox="0 0 448 512" style="enable-background:new 0 0 448 512;" xml:space="preserve">
<style type="text/css">
	.st0{fill:#FFFFFF;}
</style>
<path class="st0" d="M442.3,312.3l-40.2-23.2c4.1-21.9,4.1-44.3,0-66.2l40.2-23.2c4.6-2.6,6.7-8.1,5.2-13.2
	c-10.5-33.6-28.3-64-51.6-89.2c-3.6-3.9-9.4-4.8-14-2.2l-40.2,23.2c-16.9-14.5-36.3-25.8-57.4-33.1V38.9c0-5.3-3.7-9.9-8.9-11
	c-34.6-7.7-70.1-7.4-103,0c-5.2,1.1-8.9,5.8-8.9,11v46.4c-20.9,7.5-40.4,18.7-57.4,33.1L66.2,95.2c-4.6-2.6-10.4-1.8-14,2.2
	C28.9,122.6,11.1,153,0.6,186.6c-1.6,5.1,0.6,10.6,5.2,13.2L46,223c-4.1,21.9-4.1,44.3,0,66.2L5.8,312.4c-4.6,2.6-6.7,8.1-5.2,13.2
	c10.5,33.6,28.3,64,51.6,89.2c3.6,3.9,9.4,4.8,14,2.2l40.2-23.2c16.9,14.5,36.3,25.8,57.4,33.1v46.4c0,5.3,3.7,9.9,8.9,11
	c34.6,7.7,70.1,7.4,103,0c5.2-1.1,8.9-5.8,8.9-11v-46.4c20.9-7.5,40.4-18.7,57.4-33.1l40,23.2c4.6,2.6,10.4,1.8,14-2.2
	c23.3-25.2,41.1-55.6,51.6-89.2C449,320.4,446.9,315,442.3,312.3z M224,331.5c-41.6,0-75.5-33.9-75.5-75.5s33.9-75.5,75.5-75.5
	s75.5,33.9,75.5,75.5S265.6,331.5,224,331.5z"/>
</svg>
