<?xml version="1.0" encoding="utf-8"?>
<!-- Generator: Adobe Illustrator 21.0.0, SVG Export Plug-In . SVG Version: 6.00 Build 0)  -->
<svg version="1.1" id="Layer_1" focusable="false" xmlns="http://www.w3.org/2000/svg" xmlns:xlink="http://www.w3.org/1999/xlink"
	 x="0px" y="0px" viewBox="0 0 448 512" style="enable-background:new 0 0 448 512;" xml:space="preserve">
<style type="text/css">
	.st0{fill:#FFFFFF;}
</style>
<path class="st0" d="M288,137V1H88C74.7,1,64,11.7,64,25v232H8c-4.4,0-8,3.6-8,8v16c0,4.4,3.6,8,8,8h140.9c3,0,5.8,1.7,7.2,4.4
	l19.9,39.8l56.8-113.7c2.9-5.9,11.4-5.9,14.3,0l34.7,69.5H352c8.8,0,16,7.2,16,16s-7.2,16-16,16h-89.9L240,276.8l-56.8,113.7
	c-2.9,5.9-11.4,5.9-14.3,0L134.1,321H64v168c0,13.3,10.7,24,24,24h336c13.3,0,24-10.7,24-24V161H312C298.8,161,288,150.2,288,137z
	 M441,106L343.1,8c-4.5-4.5-10.6-7-17-7H320v128h128v-6.1C448,116.6,445.5,110.5,441,106z"/>
</svg>
