<?xml version="1.0" encoding="utf-8"?>
<!-- Generator: Adobe Illustrator 21.0.0, SVG Export Plug-In . SVG Version: 6.00 Build 0)  -->
<svg version="1.1" id="Layer_1" focusable="false" xmlns="http://www.w3.org/2000/svg" xmlns:xlink="http://www.w3.org/1999/xlink"
	 x="0px" y="0px" viewBox="0 0 448 512" style="enable-background:new 0 0 448 512;" xml:space="preserve">
<style type="text/css">
	.st0{fill:#FFFFFF;}
</style>
<path class="st0" d="M162.4,234.6h39.2v39.2c0,3.1,2.5,5.6,5.6,5.6h33.6c3.1,0,5.6-2.5,5.6-5.6v-39.2h39.2c3.1,0,5.6-2.5,5.6-5.6
	v-33.6c0-3.1-2.5-5.6-5.6-5.6h-39.2v-39.2c0-3.1-2.5-5.6-5.6-5.6h-33.6c-3.1,0-5.6,2.5-5.6,5.6v39.2h-39.2c-3.1,0-5.6,2.5-5.6,5.6
	V229C156.8,232.1,159.3,234.6,162.4,234.6z M403.2,111.4c-0.1-18.5-15.1-33.5-33.6-33.6H78.4c-18.5,0.1-33.5,15.1-33.6,33.6v235.2
	h358.4V111.4z M358.4,301.8H89.6V122.6h268.8V301.8z M436.8,369H267.1c-0.5,13.9-10.3,22.4-22.9,22.4h-42.6
	c-13.1,0-23.1-12.2-22.9-22.4H11.2C5,369,0,374,0,380.2v11.2c0.1,24.7,20.1,44.7,44.8,44.8h358.4c24.7-0.1,44.7-20.1,44.8-44.8
	v-11.2C448,374,443,369,436.8,369z"/>
</svg>
