<?xml version="1.0" encoding="utf-8"?>
<!-- Generator: Adobe Illustrator 21.0.0, SVG Export Plug-In . SVG Version: 6.00 Build 0)  -->
<svg version="1.1" id="Layer_1" focusable="false" xmlns="http://www.w3.org/2000/svg" xmlns:xlink="http://www.w3.org/1999/xlink"
	 x="0px" y="0px" viewBox="0 0 448 512" style="enable-background:new 0 0 448 512;" xml:space="preserve">
<style type="text/css">
	.st0{fill:#FFFFFF;}
</style>
<g>
	<path class="st0" d="M449,229c0,20.3,0,40.7,0,61c-1.5-0.1-3-0.2-4.5-0.2c-146.3,0-292.7,0-439,0c-1.5,0-3,0.1-4.5,0.2
		c0-20.3,0-40.7,0-61c1.5,0.1,3,0.2,4.5,0.2c146.3,0,292.7,0,439,0C446,229.2,447.5,229.1,449,229z"/>
	<path class="st0" d="M1,109c1.5,0.1,3,0.2,4.5,0.2c146.3,0,292.7,0,439,0c1.5,0,3-0.1,4.5-0.2c0,20,0,40,0,60
		c-1.5-0.1-3-0.2-4.5-0.2c-146.3,0-292.7,0-439,0c-1.5,0-3,0.1-4.5,0.2C1,149,1,129,1,109z"/>
	<path class="st0" d="M1,350c1.5,0.1,3,0.2,4.5,0.2c146.3,0,292.7,0,439,0c1.5,0,3-0.1,4.5-0.2c0,20,0,40,0,60
		c-1.5-0.1-3-0.2-4.5-0.2c-146.3,0-292.7,0-439,0c-1.5,0-3,0.1-4.5,0.2C1,390,1,370,1,350z"/>
</g>
</svg>
