<?xml version="1.0" encoding="utf-8"?>
<!-- Generator: Adobe Illustrator 21.0.0, SVG Export Plug-In . SVG Version: 6.00 Build 0)  -->
<svg version="1.1" id="Layer_1" focusable="false" xmlns="http://www.w3.org/2000/svg" xmlns:xlink="http://www.w3.org/1999/xlink"
	 x="0px" y="0px" viewBox="0 0 448 512" style="enable-background:new 0 0 448 512;" xml:space="preserve">
<style type="text/css">
	.st0{fill:#FFFFFF;}
</style>
<path class="st0" d="M87.6,74C40.3,74,2,112.3,2,159.6v171.1c0,47.3,38.3,85.6,85.6,85.6s85.6-38.3,85.6-85.6V159.6
	C173.1,112.3,134.8,74,87.6,74z M124.2,245.1H50.9v-85.6c0-20.2,16.4-36.7,36.7-36.7s36.7,16.4,36.7,36.7v85.6H124.2z M230.9,222.4
	c-2.7-2.7-7.2-2.4-9.4,0.6c-34.6,47.7-30.9,114.7,12.1,157.7s109.9,46.7,157.7,12.1c3.1-2.2,3.3-6.7,0.6-9.4L230.9,222.4z
	 M406.5,207.9c-43-43-109.9-46.7-157.7-12.1c-3.1,2.2-3.3,6.7-0.6,9.4l161,161c2.7,2.7,7.2,2.4,9.4-0.6
	C453.2,317.8,449.6,250.9,406.5,207.9L406.5,207.9z"/>
</svg>
