<?xml version="1.0" encoding="utf-8"?>
<!-- Generator: Adobe Illustrator 21.0.0, SVG Export Plug-In . SVG Version: 6.00 Build 0)  -->
<svg version="1.1" id="Layer_1" focusable="false" xmlns="http://www.w3.org/2000/svg" xmlns:xlink="http://www.w3.org/1999/xlink"
	 x="0px" y="0px" viewBox="0 0 448 512" style="enable-background:new 0 0 448 512;" xml:space="preserve">
<style type="text/css">
	.st0{fill:#FFFFFF;}
</style>
<path class="st0" d="M67.2,234.6c24.7,0,44.8-20.1,44.8-44.8S91.9,145,67.2,145s-44.8,20.1-44.8,44.8S42.5,234.6,67.2,234.6z
	 M380.8,234.6c24.7,0,44.8-20.1,44.8-44.8S405.5,145,380.8,145S336,165.1,336,189.8S356.1,234.6,380.8,234.6z M403.2,257h-44.8
	c-12.3,0-23.4,5-31.6,13c28.2,15.5,48.2,43.4,52.6,76.6h46.2c12.4,0,22.4-10,22.4-22.4v-22.4C448,277.1,427.9,257,403.2,257z
	 M224,257c43.3,0,78.4-35.1,78.4-78.4s-35.1-78.4-78.4-78.4s-78.4,35.1-78.4,78.4S180.7,257,224,257z M277.8,279.4H272
	c-14.6,7-30.7,11.2-48,11.2s-33.3-4.2-47.9-11.2h-5.8c-44.5,0-80.6,36.1-80.6,80.6v20.2c0,18.5,15.1,33.6,33.6,33.6h201.6
	c18.6,0,33.6-15,33.6-33.6V360C358.4,315.5,322.3,279.4,277.8,279.4z M121.2,270c-8.1-8.1-19.2-13-31.6-13H44.8
	C20.1,257,0,277.1,0,301.8v22.4c0,12.4,10,22.4,22.4,22.4h46.1C72.9,313.4,93,285.5,121.2,270L121.2,270z"/>
</svg>
