<?xml version="1.0" encoding="utf-8"?>
<!-- Generator: Adobe Illustrator 21.0.0, SVG Export Plug-In . SVG Version: 6.00 Build 0)  -->
<svg version="1.1" id="Layer_1" xmlns="http://www.w3.org/2000/svg" xmlns:xlink="http://www.w3.org/1999/xlink" x="0px" y="0px"
	 viewBox="0 0 458 98" style="enable-background:new 0 0 458 98;" xml:space="preserve">
<style type="text/css">
	.st0{fill:#FFFFFF;}
</style>
<g>
	<path class="st0" d="M11.9,35.4c0.5-1.1,1.2-2,2.1-2.7c1-0.6,2-1,3.2-1h33.1l-3.9,9.6c-0.5,1.1-1.2,2-2.2,2.7c-1,0.7-2.1,1-3.3,1
		H22l-2.5,6.2h22.9l-4.1,10.1c-0.4,1-1,1.8-1.9,2.3c-0.9,0.6-1.8,0.9-2.8,0.9H0L11.9,35.4z"/>
	<path class="st0" d="M55.7,35.4c0.5-1.1,1.2-2,2.1-2.7c1-0.6,2-1,3.2-1h37l-12,29.6c-0.4,0.9-1,1.7-1.9,2.3
		c-0.9,0.6-1.8,0.9-2.8,0.9H43.8L55.7,35.4z M63.3,51.3h11.2c1,0,1.7-0.5,2.1-1.4l2-4.8H67.2c-0.8,0-1.4,0.4-1.8,1.2L63.3,51.3z"/>
	<path class="st0" d="M91.6,64.6l11.9-29.1c0.5-1.1,1.2-2,2.2-2.7c1-0.6,2.1-1,3.3-1H147l-12,29.6c-0.4,0.9-1,1.7-1.9,2.3
		c-0.9,0.6-1.8,0.9-2.9,0.9h-10.7l8-19.5H115c-0.8,0-1.4,0.4-1.8,1.2L107,61.4c-0.4,0.9-1,1.7-1.9,2.3c-0.9,0.6-1.8,0.9-2.8,0.9
		H91.6z"/>
	<path class="st0" d="M139,64.6l3.9-9.6c0.5-1.1,1.2-2,2.2-2.7c1-0.7,2.1-1,3.3-1h12.8l-6.9-5.1c-0.5-0.4-0.8-0.8-0.9-1.3
		c-0.1-0.5-0.1-1.1,0.1-1.7l3.2-7.8c0.5-1.1,1.2-2,2.2-2.7c1-0.6,2.1-1,3.3-1h31.3l-3.9,9.6c-0.5,1.1-1.2,2-2.2,2.7
		c-1,0.7-2.1,1-3.3,1h-12.7l6.9,5.1c0.5,0.4,0.8,0.8,0.9,1.3c0.1,0.5,0.1,1.1-0.1,1.6l-3.2,7.9c-0.5,1.1-1.2,2-2.1,2.7
		c-1,0.7-2,1-3.2,1H139z"/>
	<path class="st0" d="M198.1,35c0.4-0.9,1-1.7,1.9-2.3c0.9-0.6,1.8-0.9,2.9-0.9h10.7l-8,19.5h12.5c0.8,0,1.4-0.4,1.8-1.2L226,35
		c0.4-0.9,1-1.7,1.9-2.3c0.9-0.6,1.8-0.9,2.9-0.9h10.7l-11.9,29.1c-0.5,1.1-1.2,2-2.2,2.7c-1,0.7-2.1,1-3.3,1h-38.1L198.1,35z"/>
	<path class="st0" d="M252.4,21.6c0.4-0.9,1-1.7,1.9-2.3c0.9-0.6,1.8-0.9,2.8-0.9h10.8l-17.1,42c-0.5,1.2-1.3,2.2-2.4,3
		c-1.1,0.7-2.3,1.1-3.6,1.1H235L252.4,21.6z"/>
	<path class="st0" d="M273.4,22.1c0.4-0.9,1-1.7,1.9-2.3c0.9-0.6,1.8-0.9,2.9-0.9h10.7l-5.2,12.9h14.5l-3.7,9.3
		c-0.5,1.2-1.3,2.2-2.3,2.9c-1.1,0.7-2.3,1.1-3.6,1.1h-8.5c-0.6,0-1.1,0.2-1.5,0.5c-0.5,0.3-0.8,0.7-1,1.2l-6,14.6
		c-0.4,0.9-1,1.7-1.9,2.3c-0.9,0.6-1.8,0.9-2.8,0.9h-10.8L273.4,22.1z"/>
	<path class="st0" d="M304.3,35.4c0.5-1.1,1.2-2,2.1-2.7c1-0.6,2-1,3.2-1h37l-12,29.6c-0.4,0.9-1,1.7-1.9,2.3
		c-0.9,0.6-1.8,0.9-2.8,0.9h-37.5L304.3,35.4z M311.9,51.3h11.2c1,0,1.7-0.5,2.1-1.4l2-4.8h-11.4c-0.8,0-1.4,0.4-1.8,1.2L311.9,51.3
		z"/>
	<path class="st0" d="M340.2,64.6L352,35.4c0.5-1.1,1.2-2,2.2-2.7c1-0.6,2.1-1,3.3-1h31.3l-3.9,9.6c-0.5,1.1-1.2,2-2.2,2.7
		c-1,0.7-2.1,1-3.3,1h-15.8c-0.8,0-1.4,0.4-1.8,1.2l-7.4,18.3H340.2z"/>
	<path class="st0" d="M393.3,35.4c0.5-1.1,1.2-2,2.2-2.7c1-0.6,2.1-1,3.3-1h10.2l-12.1,29.6c-0.4,0.9-1,1.7-1.9,2.3
		c-0.9,0.6-1.8,0.9-2.8,0.9h-10.8L393.3,35.4z M395.7,30l3.4-8.4c0.4-0.9,1-1.7,1.9-2.3c0.9-0.6,1.8-0.9,2.9-0.9h10.7l-3.4,8.3
		c-0.4,1-1,1.8-1.9,2.3c-0.9,0.6-1.8,0.9-2.8,0.9H395.7z"/>
	<path class="st0" d="M415.3,35.4c0.5-1.1,1.2-2,2.1-2.7c1-0.6,2-1,3.2-1h37l-12,29.6c-0.4,0.9-1,1.7-1.9,2.3
		c-0.9,0.6-1.8,0.9-2.8,0.9h-37.5L415.3,35.4z M423,51.3h11.2c1,0,1.7-0.5,2.1-1.4l2-4.8h-11.4c-0.8,0-1.4,0.4-1.8,1.2L423,51.3z"/>
</g>
</svg>
